<svg xmlns="http://www.w3.org/2000/svg" viewBox="0 0 981.6 998.39" width="100" height="50">
  <defs>
    <style>
      .cls-1 {
        fill: #fff;
      }
    </style>
  </defs>
  <title>woyd-logo-white</title>
  <g id="bottom_line" data-name="bottom line">
    <path class="cls-1" d="M998.21,667.39H663a32.8,32.8,0,0,1,0-65.59H998.21a32.8,32.8,0,0,1,0,65.59Z" transform="translate(-49.4 -40.81)"/>
  </g>
  <g id="top_line" data-name="top line">
    <path class="cls-1" d="M998.21,479.22H663a32.79,32.79,0,1,1,0-65.58H998.21a32.79,32.79,0,0,1,0,65.58Z" transform="translate(-49.4 -40.81)"/>
  </g>
  <g id="d">
    <path class="cls-1" d="M830.59,1039.18H663a32.79,32.79,0,0,1-32.79-32.79V798.69A32.79,32.79,0,0,1,663,765.9H998.21A32.79,32.79,0,0,1,1031,798.69v40.08C1031,949.28,941.1,1039.18,830.59,1039.18ZM695.78,973.59H830.59c74.34,0,134.82-60.48,134.82-134.82v-7.28H695.78Z" transform="translate(-49.4 -40.81)"/>
  </g>
  <g id="y">
    <path class="cls-1" d="M472.32,652.06l-159,234.88V1006.1a33.09,33.09,0,0,1-33.1,33.09h0a33.09,33.09,0,0,1-33.1-33.09V886.94L88.21,652.06c-14.33-21.18.84-49.76,26.4-49.76h0a31.9,31.9,0,0,1,26.79,14.59L269,814.63a13.37,13.37,0,0,0,11.23,6.12h0a13.37,13.37,0,0,0,11.23-6.12L419.12,616.89a31.9,31.9,0,0,1,26.79-14.59h0C471.48,602.3,486.65,630.88,472.32,652.06Z" transform="translate(-49.4 -40.81)"/>
  </g>
  <g id="o">
    <path class="cls-1" d="M998.21,314.09H663a32.79,32.79,0,0,1-32.79-32.8V241.21c0-110.5,89.9-200.4,200.4-200.4S1031,130.71,1031,241.21v40.08A32.79,32.79,0,0,1,998.21,314.09ZM695.78,248.5H965.41v-7.29c0-74.34-60.48-134.82-134.82-134.82S695.78,166.87,695.78,241.21Z" transform="translate(-49.4 -40.81)"/>
  </g>
  <g id="w">
    <path class="cls-1" d="M511.18,73.38a36.22,36.22,0,0,1-.51,5.61l-62,359.14a47.68,47.68,0,0,1-47,39.56h-.06a47.67,47.67,0,0,1-44.77-31.28l-73.88-201.7h-5.32l-74,201.71a47.68,47.68,0,0,1-44.77,31.27h0a47.68,47.68,0,0,1-47-39.56L49.88,79A32.61,32.61,0,0,1,82,40.81a32.44,32.44,0,0,1,32.21,27.83l48.83,329,82.35-225.76c.44-1.17.87-2.34,1.31-3.5a36.48,36.48,0,0,1,67,0l1.32,3.5L397.43,397.6l48.82-329a32.64,32.64,0,0,1,64.93,4.74Z" transform="translate(-49.4 -40.81)"/>
  </g>
</svg>
